<?xml version="1.0" encoding="iso-8859-1"?>
<!-- Generator: Adobe Illustrator 19.0.0, SVG Export Plug-In . SVG Version: 6.00 Build 0)  -->
<svg version="1.1" id="Layer_1" xmlns="http://www.w3.org/2000/svg" xmlns:xlink="http://www.w3.org/1999/xlink" x="0px" y="0px"
	 viewBox="0 0 512.108 512.108" style="enable-background:new 0 0 512.108 512.108;" xml:space="preserve">
<g transform="translate(-1)">
	<g>
		<path d="M510.386,159.652c0.08-0.144,0.159-0.288,0.235-0.434c0.171-0.323,0.334-0.647,0.486-0.974
			c0.001-0.002,0.002-0.004,0.003-0.007c1.354-2.902,1.979-5.929,1.969-8.903c0-0.039,0.001-0.077,0.001-0.116
			c-0.003-0.351-0.017-0.7-0.037-1.048c-0.008-0.146-0.016-0.292-0.027-0.439c-0.021-0.266-0.049-0.53-0.08-0.794
			c-0.026-0.223-0.053-0.446-0.087-0.67c-0.031-0.206-0.066-0.412-0.103-0.617c-0.048-0.266-0.099-0.533-0.157-0.799
			c-0.039-0.178-0.082-0.355-0.126-0.533c-0.068-0.275-0.14-0.55-0.219-0.825c-0.053-0.183-0.11-0.365-0.168-0.547
			c-0.081-0.255-0.165-0.509-0.256-0.763c-0.076-0.211-0.158-0.42-0.24-0.629c-0.087-0.22-0.174-0.439-0.269-0.658
			c-0.102-0.237-0.212-0.47-0.323-0.703c-0.064-0.134-0.118-0.269-0.185-0.402l-64-128c-0.042-0.084-0.091-0.163-0.134-0.246
			c-0.118-0.227-0.241-0.451-0.366-0.674c-0.124-0.221-0.249-0.442-0.379-0.657c-0.089-0.146-0.182-0.289-0.274-0.432
			c-0.18-0.282-0.363-0.562-0.553-0.832c-0.035-0.049-0.071-0.096-0.106-0.145c-1.081-1.506-2.317-2.826-3.676-3.95
			c-0.071-0.059-0.146-0.113-0.217-0.171c-0.268-0.216-0.537-0.43-0.814-0.631c-0.296-0.217-0.602-0.421-0.91-0.623
			c-0.053-0.034-0.103-0.072-0.156-0.105c-2.547-1.635-5.502-2.746-8.762-3.149c-0.118-0.015-0.236-0.024-0.354-0.037
			c-0.321-0.034-0.641-0.07-0.968-0.09c-0.485-0.032-0.971-0.05-1.457-0.049H257.054H86.433c-0.486,0-0.972,0.017-1.457,0.049
			c-0.327,0.02-0.647,0.056-0.968,0.09c-0.118,0.013-0.236,0.022-0.353,0.037c-3.26,0.403-6.215,1.514-8.762,3.149
			c-0.053,0.034-0.104,0.071-0.156,0.105c-0.308,0.202-0.614,0.406-0.91,0.623c-0.276,0.2-0.544,0.414-0.811,0.629
			c-0.073,0.059-0.149,0.114-0.221,0.174c-1.359,1.123-2.595,2.443-3.676,3.95c-0.035,0.049-0.072,0.096-0.106,0.145
			c-0.191,0.27-0.373,0.55-0.553,0.832c-0.092,0.144-0.185,0.286-0.274,0.432c-0.13,0.215-0.255,0.436-0.38,0.658
			c-0.125,0.222-0.248,0.446-0.365,0.672c-0.043,0.084-0.092,0.162-0.134,0.247l-64,128c-0.067,0.134-0.121,0.269-0.185,0.403
			c-0.111,0.233-0.22,0.465-0.323,0.702c-0.095,0.219-0.182,0.438-0.269,0.658c-0.082,0.209-0.164,0.417-0.24,0.629
			c-0.091,0.254-0.175,0.508-0.256,0.763c-0.058,0.182-0.115,0.363-0.168,0.547c-0.08,0.275-0.151,0.55-0.219,0.825
			c-0.044,0.177-0.087,0.354-0.126,0.532c-0.058,0.267-0.11,0.534-0.158,0.801c-0.037,0.204-0.072,0.409-0.103,0.614
			c-0.033,0.224-0.061,0.448-0.087,0.672c-0.031,0.264-0.059,0.527-0.08,0.793c-0.011,0.147-0.019,0.294-0.027,0.44
			c-0.02,0.348-0.034,0.696-0.037,1.046c0,0.039,0.001,0.079,0.001,0.118c-0.009,2.973,0.615,6,1.969,8.902
			c0.001,0.002,0.002,0.004,0.003,0.007c0.152,0.327,0.315,0.651,0.486,0.974c0.076,0.146,0.155,0.29,0.235,0.434
			c0.127,0.227,0.255,0.453,0.391,0.678c0.16,0.265,0.328,0.524,0.498,0.782c0.068,0.102,0.126,0.206,0.196,0.308l233.134,339.104
			c0.669,1.273,1.473,2.453,2.379,3.545c1.316,1.679,2.85,3.087,4.533,4.232c3.637,2.62,7.777,3.802,11.887,3.79
			c0.104,0.003,0.208,0.003,0.313,0.005c0.104-0.002,0.208-0.001,0.313-0.005c4.11,0.012,8.251-1.17,11.887-3.79
			c1.684-1.145,3.218-2.553,4.533-4.232c0.906-1.092,1.71-2.273,2.379-3.545L509.3,161.42c0.07-0.102,0.128-0.206,0.196-0.308
			c0.171-0.258,0.339-0.517,0.498-0.782C510.131,160.105,510.259,159.879,510.386,159.652z M257.054,402.708l-16.397-65.588
			l-41.613-166.453h116.02L273.451,337.12L257.054,402.708z M302.525,128.001h-90.943l32.617-48.926l12.855-19.282l12.855,19.282
			L302.525,128.001z M342.387,110.875l-32.171-48.256l-13.301-19.951h90.943L342.387,110.875z M171.72,110.875L139.55,62.619
			l-13.301-19.951h90.943L171.72,110.875z M403.377,96.309l21.703-32.554l32.123,64.246h-74.954L403.377,96.309z M89.028,63.755
			l21.703,32.554l21.128,31.692H56.905L89.028,63.755z M155.064,170.668l52.641,210.563L62.942,170.668H155.064z M306.403,381.231
			l20.015-80.059l32.626-130.504h92.121L306.403,381.231z"/>
	</g>
</g>
<g>
</g>
<g>
</g>
<g>
</g>
<g>
</g>
<g>
</g>
<g>
</g>
<g>
</g>
<g>
</g>
<g>
</g>
<g>
</g>
<g>
</g>
<g>
</g>
<g>
</g>
<g>
</g>
<g>
</g>
</svg>
