<?xml version="1.0" encoding="UTF-8" standalone="no"?>
<!-- Created with Inkscape (http://www.inkscape.org/) -->

<svg
   xmlns:dc="http://purl.org/dc/elements/1.1/"
   xmlns:cc="http://creativecommons.org/ns#"
   xmlns:rdf="http://www.w3.org/1999/02/22-rdf-syntax-ns#"
   xmlns:svg="http://www.w3.org/2000/svg"
   xmlns="http://www.w3.org/2000/svg"
   version="1.0"
   width="100%"
   height="100%"
   viewBox="0 0 300 91"
   id="Layer_1"
   xml:space="preserve"><metadata
     id="metadata21"><rdf:RDF><cc:Work
         rdf:about=""><dc:format>image/svg+xml</dc:format><dc:type
           rdf:resource="http://purl.org/dc/dcmitype/StillImage" /><dc:title></dc:title></cc:Work></rdf:RDF></metadata><defs
     id="defs19" /><path
     d="m 194.67919,58.0193 c -1.65421,-1.65421 -3.67027,-2.48131 -5.9448,-2.48131 -2.27453,0 -4.29059,0.8271 -5.9448,2.48131 -1.6542,1.6542 -2.4813,3.61857 -2.4813,5.8931 0,2.37792 0.8271,4.44568 2.42961,6.04819 1.60251,1.60251 3.67026,2.42961 5.99649,2.42961 h 0 c 2.32622,0 4.34229,-0.8271 5.8931,-2.42961 1.65421,-1.65421 2.48131,-3.67027 2.48131,-5.99649 0.0517,-2.32623 -0.8271,-4.34229 -2.42961,-5.9448 z"
     id="path3"
     style="fill:#f39600" /><path
     d="m 23.985965,22.247127 c -4.393981,0 -8.477798,1.550817 -12.148064,4.549063 V 0.690776 c 0,-0.155082 -0.05169,-0.25847 -0.155082,-0.361858 C 11.579431,0.225531 11.42435,0.173837 11.320962,0.173837 H 0.51693889 c -0.15508167,0 -0.25846944,0.05169 -0.36185722,0.155081 C 0.05169389,0.432306 0,0.535694 0,0.690776 V 70.736 c 0,0.15508 0.05169389,0.25846 0.15508167,0.36185 0.10338778,0.10339 0.25846944,0.15508 0.36185722,0.15508 H 11.320962 c 0.155081,0 0.258469,-0.0517 0.361857,-0.15508 0.103388,-0.10339 0.155082,-0.25847 0.155082,-0.36185 V 48.14577 c 0,-5.68633 0.775408,-9.666761 2.171143,-11.889599 1.395735,-2.119449 3.825348,-3.256715 7.495614,-3.256715 2.843164,0 4.755838,0.827103 5.996491,2.326225 1.18896,1.499123 1.86098,4.083818 1.86098,7.805779 V 70.736 c 0,0.15508 0.05169,0.25846 0.155082,0.36185 0.103388,0.10339 0.206775,0.15508 0.361857,0.15508 h 10.804023 c 0.155081,0 0.258469,-0.0517 0.361857,-0.15508 0.103388,-0.10339 0.155082,-0.25847 0.155082,-0.36185 V 42.14927 c 0,-6.565119 -1.344041,-11.476039 -4.187205,-14.577672 -3.256715,-3.566878 -7.650696,-5.324471 -13.02686,-5.324471 z"
     id="path5"
     style="fill:#907b56" /><path
     d="m 70.303689,21.988658 c -7.030369,0 -13.078554,2.429613 -17.989473,7.237144 -4.91092,4.807532 -7.392226,10.700635 -7.392226,17.575918 0,7.28884 2.429612,13.38872 7.237144,18.19625 4.807532,4.91092 10.855717,7.34054 17.93778,7.34054 h 0 c 7.18545,0 13.285329,-2.42962 18.196249,-7.18545 4.910919,-4.80754 7.392226,-10.85572 7.392226,-17.93778 0,-7.030373 -2.481307,-13.078558 -7.340532,-17.937784 -4.91092,-4.859225 -10.959105,-7.288838 -18.041168,-7.288838 z M 83.640713,47.26697 c 0,4.44567 -1.240654,7.90916 -3.618573,10.54555 -2.429612,2.5847 -5.634633,3.87704 -9.718451,3.87704 -4.083817,0 -7.288838,-1.29234 -9.718451,-3.92873 -2.377919,-2.5847 -3.566878,-6.15157 -3.618572,-10.70064 0,-4.23889 1.240653,-7.650691 3.670266,-10.28708 2.481307,-2.636388 5.634634,-3.928735 9.615063,-3.928735 4.083818,0 7.288839,1.344041 9.718452,3.928735 2.481306,2.584695 3.670266,6.04819 3.670266,10.49386 z"
     id="path7"
     style="fill:#907b56" /><path
     d="m 125.61615,21.988658 c -5.16939,0 -9.82184,1.912674 -13.95735,5.686328 v -3.825348 c 0,-0.155082 -0.0517,-0.25847 -0.15508,-0.361857 -0.10339,-0.103388 -0.20678,-0.155082 -0.36186,-0.155082 h -10.75233 c -0.15508,0 -0.25847,0.05169 -0.36185,0.155082 -0.103392,0.103387 -0.155086,0.258469 -0.155086,0.361857 V 90.48306 c 0,0.15508 0.05169,0.25847 0.155086,0.36186 C 100.13106,90.94831 100.23445,91 100.38953,91 h 10.80403 c 0.15508,0 0.25847,-0.0517 0.36185,-0.15508 0.10339,-0.10339 0.15508,-0.20678 0.15508,-0.36186 V 66.54879 c 4.18721,3.87704 8.89135,5.84141 14.16413,5.84141 6.46174,0 11.88959,-2.37792 16.12849,-7.13376 4.2906,-4.75583 6.41005,-10.75233 6.41005,-17.83439 0,-7.237143 -2.17115,-13.337022 -6.46174,-18.144554 -4.29059,-4.859225 -9.77015,-7.288838 -16.33527,-7.288838 z m -11.0108,14.732758 c 2.37792,-2.636388 5.37617,-3.928735 9.25321,-3.928735 3.61857,0 6.51343,1.344041 8.89135,4.083817 2.32622,2.688082 3.51518,6.203262 3.51518,10.597252 0,4.13551 -1.18896,7.49561 -3.61857,10.18369 -2.32623,2.68808 -5.27278,4.03212 -8.83966,4.03212 -3.82534,0 -6.87528,-1.34404 -9.20151,-3.98042 -2.37792,-2.73978 -3.56688,-6.20327 -3.56688,-10.49386 0.0517,-4.39398 1.24066,-7.857475 3.56688,-10.493864 z"
     id="path9"
     style="fill:#907b56" /><path
     d="m 174.2601,21.988658 c -6.92698,0 -12.56161,2.326225 -16.74882,6.926981 -4.1872,4.65245 -6.25496,10.804023 -6.25496,18.299641 0,7.5473 2.17114,13.64718 6.46174,18.29963 4.34228,4.60076 9.77014,6.35835 11.99298,6.35835 0.25847,0 0.51694,-0.20677 0.51694,-0.46524 l 0.98218,-10.23539 -0.0517,-0.31017 v 0 c -0.10339,-0.15508 -0.25847,-0.31016 -0.46525,-0.31016 0,0 -1.49912,0.0517 -3.56688,-2.06776 -1.96436,-2.06775 -3.15332,-4.75583 -3.51518,-8.27102 h 32.87731 c 0.31017,0 0.51694,-0.20677 0.51694,-0.51694 l 0.0517,-2.533 c 0,-7.805775 -2.01607,-13.957348 -6.09988,-18.403023 -4.13551,-4.549062 -9.71845,-6.771899 -16.69713,-6.771899 z m -6.25496,12.975166 c 0.8788,-0.723714 1.91267,-1.240653 2.99825,-1.654204 1.08557,-0.361858 2.27453,-0.568633 3.51518,-0.568633 5.32447,0.05169 8.58119,2.429613 10.1837,7.547308 h -20.26401 c 0.31016,-1.033878 0.72372,-1.964368 1.29235,-2.79147 0.56863,-0.93049 1.34404,-1.809286 2.27453,-2.533001 z"
     id="path11"
     style="fill:#907b56" /><path
     d="m 250.56028,0.122143 h -10.85572 c -0.15508,0 -0.25847,0.05169 -0.36185,0.155081 -0.10339,0.103388 -0.15508,0.25847 -0.15508,0.361858 l 0,27.294373 c -4.18721,-3.980429 -8.89135,-5.996491 -14.16413,-5.996491 -6.41004,0 -11.8379,2.429613 -16.0768,7.237145 -4.29059,4.755837 -6.41004,10.700635 -6.41004,17.782701 0,7.23714 2.11945,13.33702 6.41004,18.19625 4.29059,4.75583 9.77015,7.18545 16.28358,7.18545 h 0.0517 c 5.11769,0 9.77014,-1.86098 13.90566,-5.53125 v 3.67027 c 0,0.15508 0.0517,0.25847 0.15508,0.36185 0.10338,0.10339 0.20677,0.15508 0.36185,0.15508 h 10.85572 c 0.15508,0 0.25847,-0.0517 0.36186,-0.15508 0.10339,-0.10338 0.15508,-0.20677 0.15508,-0.36185 l 0,-69.838448 c 0,-0.155082 -0.0517,-0.25847 -0.15508,-0.361858 -0.0517,-0.103387 -0.20678,-0.155081 -0.36186,-0.155081 z M 236.34446,57.70914 c -2.37792,2.63638 -5.42786,3.92873 -9.2532,3.92873 -3.61858,0 -6.51343,-1.34404 -8.89135,-4.08382 -2.32623,-2.68808 -3.46349,-6.20326 -3.46349,-10.59724 0,-4.08382 1.18896,-7.443924 3.56687,-10.1837 2.42962,-2.688082 5.32447,-4.032123 8.89135,-4.032123 3.82535,0 6.8236,1.344041 9.20152,3.980429 2.37791,2.739776 3.56687,6.203264 3.56687,10.493864 -0.0517,4.29059 -1.24065,7.75408 -3.61857,10.49386 z"
     id="path13"
     style="fill:#907b56" /><path
     d="M 299.87625,70.37414 278.42329,43.6484 298.32543,24.418271 c 0.15509,-0.155082 0.20678,-0.361858 0.10339,-0.568633 -0.10339,-0.206776 -0.25847,-0.310163 -0.46524,-0.310163 h -14.47429 l -0.36186,0.155081 -14.31921,14.21582 v -37.2196 c 0,-0.155082 -0.0517,-0.25847 -0.15508,-0.361858 -0.10339,-0.103387 -0.25847,-0.155081 -0.36186,-0.155081 h -10.75232 c -0.15509,0 -0.25847,0.05169 -0.36186,0.155081 -0.10339,0.103388 -0.15508,0.206776 -0.15508,0.361858 V 70.736 c 0,0.15508 0.0517,0.25846 0.15508,0.36185 0.10339,0.10339 0.25847,0.15508 0.36186,0.15508 h 10.80402 c 0.15508,0 0.25847,-0.0517 0.36186,-0.15508 0.10338,-0.10339 0.15508,-0.25847 0.15508,-0.36185 V 53.00499 l 1.13726,-1.13726 15.04292,19.23012 c 0.10339,0.10339 0.25847,0.20678 0.41356,0.20678 h 14.00904 c 0.20678,0 0.36186,-0.10339 0.46525,-0.31017 0.10338,-0.20677 0.10338,-0.46524 -0.0517,-0.62032 z"
     id="path15"
     style="fill:#907b56" /></svg>