<svg id="Layer_1" data-name="Layer 1" xmlns="http://www.w3.org/2000/svg" viewBox="0 0 340.2 85"><defs><style>.cls-1{fill:#662483;}.cls-2{fill:#fff;}.cls-3{fill:#1e1e1c;}.cls-4{fill:#64257e;}</style></defs><title>Artboard 2</title><path class="cls-1" d="M80,80.8H18.4A16.5,16.5,0,0,1,1.9,64.4V19.1A16.4,16.4,0,0,1,18.4,2.7H63.6A16.3,16.3,0,0,1,80,19.1Z"/><path class="cls-2" d="M72.3,42.8V40.7H52.4a14.2,14.2,0,0,0-.4-2H70.2V36.6H58.8a4.2,4.2,0,0,0,1.6-1.1c3.9-3.9.8-12.9.6-13.3v-.4h-.4a23.2,23.2,0,0,0-7.4-1.4,8.1,8.1,0,0,0-5.9,2,4.2,4.2,0,0,0-1.1,1.6V12.5H44V30.7l-2-.4V10.4H40V30.3l-2,.4V12.5H35.9V23.9a5.7,5.7,0,0,0-1.1-1.6,8.1,8.1,0,0,0-5.9-2,22.5,22.5,0,0,0-7.4,1.4h-.4v.4c-.2.4-3.4,9.4.6,13.3a3.6,3.6,0,0,0,1.6,1.1H11.8v2.1H29.9a13.8,13.8,0,0,0-.3,2H9.7v2.1H29.6a12.5,12.5,0,0,0,.3,1.9H11.8v2.1H23.2a6.4,6.4,0,0,0-1.6,1.1c-4,4-.8,13-.7,13.3l.2.4.4.2a26.6,26.6,0,0,0,7.4,1.3c2.6,0,4.6-.6,5.9-2a6.4,6.4,0,0,0,1.1-1.6V70.9H38V52.8a6.4,6.4,0,0,0,2,.3V73h2V53.1a6.4,6.4,0,0,0,2-.3V70.9h2.1V59.5a4.5,4.5,0,0,0,1.1,1.7c1.3,1.3,3.3,1.9,5.9,1.9a28.5,28.5,0,0,0,7.4-1.3l.4-.2v-.4c.2-.3,3.3-9.3-.6-13.3a9.1,9.1,0,0,0-1.6-1.1H70.2V44.7H52a12.9,12.9,0,0,0,.4-1.9Zm-22-2.1H46.1v-2h3.7a11.7,11.7,0,0,1,.5,2M35.9,49.6a10.3,10.3,0,0,1-2.7-2.8h2.7ZM38,38.7h2v2H38Zm0,4.1h2v1.9H38Zm4-4.1h2v2H42Zm0,4.1h2v1.9H42Zm4.1-8.9a8.7,8.7,0,0,1,2.7,2.7H46.1Zm2.3-10.4a6.9,6.9,0,0,1,4.7-1.4,23.4,23.4,0,0,1,6.4,1.1c.9,2.6,2.1,8.6-.3,11.1a4,4,0,0,1-2.7,1.1,3.3,3.3,0,0,1-2.3-.9c-2.2-2.3.1-4.8.4-5.1l-1.3-1.2a5.1,5.1,0,0,1-2.9,1.3,3,3,0,0,1-2.1-1,3.5,3.5,0,0,1-1-2.5,4.7,4.7,0,0,1,1.1-2.5m-2.3,4.9a3.8,3.8,0,0,0,.9,1.3,4.6,4.6,0,0,0,3.4,1.5h0l1.3-.2A4.6,4.6,0,0,0,53,35.7a3.8,3.8,0,0,0,1.3.9H51.2a11.4,11.4,0,0,0-5.1-5.1ZM44,32.9v3.7H42V32.4l2,.5m2.1,13.9h2.7a9,9,0,0,1-2.7,2.8ZM40,32.4v4.2H38V32.9l2-.5M22.5,23.2a23.4,23.4,0,0,1,6.4-1.1,6.5,6.5,0,0,1,4.6,1.4,3.5,3.5,0,0,1,.2,5,3,3,0,0,1-2.1,1,4.7,4.7,0,0,1-2.9-1.3l-1.3,1.2c.1.1,2.6,2.8.3,5.1a3.1,3.1,0,0,1-2.2.9,3.9,3.9,0,0,1-2.7-1.1c-2.5-2.5-1.2-8.5-.3-11.1m5.1,13.4a4.2,4.2,0,0,0,1.4-.9A4.6,4.6,0,0,0,30.3,31l1.3.2A4.8,4.8,0,0,0,35,29.7a3.8,3.8,0,0,0,.9-1.3v3.1a11.7,11.7,0,0,0-5.2,5.1Zm8.3-2.7v2.7H33.2a8.7,8.7,0,0,1,2.7-2.7m-3.8,4.8h3.8v2H31.7a11.8,11.8,0,0,1,.4-2m-.4,4.1h4.2v1.9H32.1a12.9,12.9,0,0,1-.4-1.9m1.8,17.1c-.9,1-2.5,1.5-4.6,1.5a19.5,19.5,0,0,1-6.4-1.2c-.9-2.5-2.2-8.5.3-11A4,4,0,0,1,25.5,48a3.2,3.2,0,0,1,2.2,1c2.3,2.2,0,4.8-.3,5.1l1.2,1.2a5.5,5.5,0,0,1,3-1.3,2.6,2.6,0,0,1,2.1,1,3.1,3.1,0,0,1,1,2.4,4.2,4.2,0,0,1-1.2,2.5m2.4-4.8a6.7,6.7,0,0,0-.9-1.4,5.1,5.1,0,0,0-3.4-1.4H30.3A4.5,4.5,0,0,0,29,47.8a7.1,7.1,0,0,0-1.4-1h3.1A11.9,11.9,0,0,0,35.9,52ZM38,50.6V46.8h2V51l-2-.4m4,.4V46.8h2v3.8L42,51m17.5,9.2a19.5,19.5,0,0,1-6.4,1.2,6.5,6.5,0,0,1-4.7-1.5,3.5,3.5,0,0,1-.1-4.9,2.6,2.6,0,0,1,2.1-1,5.1,5.1,0,0,1,2.9,1.3l1.3-1.2c-.3-.3-2.6-2.9-.4-5.1a3.3,3.3,0,0,1,2.3-.9,4,4,0,0,1,2.7,1.1c2.4,2.5,1.2,8.5.3,11M54.3,46.8l-1.3,1a4.5,4.5,0,0,0-1.3,4.6H50.4A4.9,4.9,0,0,0,47,53.7a4.2,4.2,0,0,0-.9,1.4V52a11.2,11.2,0,0,0,5.1-5.2Zm-4.5-2.1H46.1V42.8h4.2a13.3,13.3,0,0,1-.5,1.9"/><polygon class="cls-3" points="175.1 2.7 184.3 2.7 184.3 19.1 184.4 19.1 195.3 2.7 205.2 2.7 192.9 20.7 205.8 38.7 194.9 38.7 184.4 23 184.3 23 184.3 38.7 175.1 38.7 175.1 2.7"/><polygon class="cls-3" points="92.2 2.7 101.4 2.7 101.4 19.1 101.5 19.1 112.4 2.7 122.3 2.7 109.9 20.7 122.9 38.7 112 38.7 101.5 23 101.4 23 101.4 38.7 92.2 38.7 92.2 2.7"/><rect class="cls-3" x="126.3" y="2.7" width="9.2" height="35.99"/><path class="cls-3" d="M142.3,2.7h11.4c6.3,0,8.8.8,11.1,2.6a12.2,12.2,0,0,1,4.4,9.8c0,4.1-1.7,9.2-7.9,11l8.9,12.6h-9.9l-8.1-11.9h-1.1V38.7h-8.8Zm8.8,17.7h3.3c5.4,0,6-3.1,6-4.9s-2.4-4.8-5.9-4.8h-3.4Z"/><polygon class="cls-3" points="209.5 2.7 232 2.7 232 10.8 218.3 10.8 218.3 16.4 230.2 16.4 230.2 24.5 218.3 24.5 218.3 30.6 232 30.6 232 38.7 209.5 38.7 209.5 2.7"/><polygon class="cls-3" points="238 2.7 245.9 2.7 259.4 23.4 259.5 23.4 259.5 2.7 268.3 2.7 268.3 38.7 260.4 38.7 246.9 18.7 246.8 18.7 246.8 38.7 238 38.7 238 2.7"/><path class="cls-3" d="M289.3,13.2A3.2,3.2,0,0,0,286,9.7a3,3,0,0,0-3.2,2.8c0,2.2,1,2.6,7.5,5.5s8.2,6.2,8.2,10.4-2.8,11-12.4,11S273.3,32.6,273.3,28v-.8h9c0,4.2,2.6,4.5,3.7,4.5a3.3,3.3,0,0,0,3.5-3.2c0-2.4-1.5-3.2-7-5.5-2.6-1.1-8.5-3.6-8.5-10.4S280.2,2,286.3,2A13.1,13.1,0,0,1,296,6.1a10.4,10.4,0,0,1,2.2,7.1Z"/><polygon class="cls-4" points="92.2 44.8 101.4 44.8 101.4 61.1 101.5 61.1 112.4 44.8 122.3 44.8 109.9 62.7 122.9 80.8 112 80.8 101.5 65.1 101.4 65.1 101.4 80.8 92.2 80.8 92.2 44.8"/><path class="cls-4" d="M311.3,44.8h11.3c6.4,0,8.8.8,11.1,2.6a12.2,12.2,0,0,1,4.4,9.8c0,4.1-1.6,9.2-7.8,11l8.9,12.6h-10l-8-11.9h-1.1V80.8h-8.8Zm8.8,17.6h3.2c5.4,0,6-3.1,6-4.8,0-3.3-2.3-4.9-5.9-4.9h-3.3Z"/><path class="cls-4" d="M166.7,44.8h11.4c6.3,0,8.7.8,11.1,2.6a12.6,12.6,0,0,1,4.4,9.8c0,4.1-1.7,9.2-7.9,11l8.9,12.6h-10l-8-11.9h-1.1V80.8h-8.8Zm8.8,17.6h3.2c5.4,0,6.1-3.1,6.1-4.8,0-3.3-2.4-4.9-6-4.9h-3.3Z"/><path class="cls-4" d="M213.3,55.3a3.2,3.2,0,0,0-3.4-3.5,2.9,2.9,0,0,0-3.1,2.8c0,2.1,1,2.6,7.4,5.5s8.3,6.1,8.3,10.3-2.9,11.1-12.4,11.1S197.2,74.6,197.2,70v-.7h9.1c0,4.2,2.5,4.5,3.7,4.5a3.3,3.3,0,0,0,3.5-3.3c0-2.4-1.5-3.2-7.1-5.5-2.5-1-8.5-3.5-8.5-10.3s6.3-10.6,12.3-10.6a12.9,12.9,0,0,1,9.8,4.1,10.1,10.1,0,0,1,2.2,7.1Z"/><path class="cls-4" d="M142.1,44.1a18.7,18.7,0,1,1,0,37.4,18.6,18.6,0,0,1-18.9-18.3,20,20,0,0,1,1.4-7.7,18.8,18.8,0,0,1,17.5-11.4m.2,29.3c6.5,0,9.7-6,9.7-10.6s-3.2-10.6-9.8-10.6-9.8,5.4-9.8,10.5,3.7,10.7,9.9,10.7"/><polygon class="cls-4" points="227.6 44.8 236.8 44.8 236.8 58.3 248.6 58.3 248.6 44.8 257.7 44.8 257.7 80.8 248.6 80.8 248.6 66.7 236.8 66.7 236.8 80.8 227.6 80.8 227.6 44.8"/><path class="cls-4" d="M273.8,74.4l-3.3,6.4H259.9l20.8-36H305v8.1H293.5v5.5h9.7v8.1h-9.7v6.2H305v8.1H285V74.4ZM285,67.6V54.3h-.6l-7,13.3Z"/></svg>