<svg width="475" height="125" xmlns="http://www.w3.org/2000/svg">

 <g>
  <title>background</title>
  <rect fill="none" id="canvas_background" height="127" width="477" y="-1" x="-1"/>
 </g>
 <g>
  <title>Layer 1</title>
  <g id="svg_1">
   <g id="svg_2">
    <path id="svg_3" d="m37.021,50.179l6.847,0l0,38.508c-0.581,4.262 -2.409,7.931 -5.485,11.007c-3.556,3.582 -7.957,5.372 -13.202,5.372c-5.296,0 -9.747,-1.81 -13.353,-5.429c-3.606,-3.618 -5.409,-7.911 -5.409,-12.88l0,-36.579l6.847,0l0,36.579c0,3.48 1.185,6.412 3.556,8.795c2.37,2.383 5.157,3.574 8.36,3.574c3.177,0 5.945,-1.191 8.303,-3.574s3.537,-5.314 3.537,-8.795l0,-36.578l-0.001,0z" fill="#1B467A"/>
    <path id="svg_4" d="m60.246,78.814l0,25.798l-6.847,0l0,-34.574l6.847,0c1.16,-1.261 3.556,-1.891 7.187,-1.891c4.362,0 7.88,1.337 10.554,4.009c2.673,2.674 4.035,5.939 4.085,9.798l0,22.658l-6.809,0l0,-22.355c0,-2.346 -0.794,-4.294 -2.383,-5.845c-1.589,-1.551 -3.405,-2.326 -5.447,-2.326c-2.018,0 -3.796,0.731 -5.333,2.193c-0.884,0.883 -1.502,1.729 -1.854,2.535z" fill="#1B467A"/>
    <path id="svg_5" d="m120.767,98.749c-2.371,4.515 -6.317,6.771 -11.84,6.771c-5.473,0 -10.106,-1.897 -13.901,-5.693c-3.796,-3.795 -5.693,-8.277 -5.693,-13.447c0,-5.221 1.897,-9.716 5.693,-13.485c3.795,-3.77 8.429,-5.655 13.901,-5.655c5.498,0 9.608,2.282 12.332,6.847l0,-4.048l6.847,0l0,26.025c0,5.068 -1.829,9.419 -5.485,13.05c-3.833,3.858 -8.499,5.788 -13.996,5.788c-5.498,0 -10.125,-1.879 -13.882,-5.637c-0.858,-0.883 -1.942,-2.193 -3.253,-3.934l6.544,-2.383c0.882,1.109 1.5,1.815 1.854,2.118c2.446,2.471 5.358,3.707 8.738,3.707c7.135,0 11.183,-3.341 12.141,-10.024zm0.454,-15.282c-0.505,-2.445 -1.69,-4.615 -3.556,-6.506c-2.447,-2.472 -5.359,-3.707 -8.738,-3.707c-3.404,0 -6.355,1.261 -8.852,3.782c-2.497,2.522 -3.745,5.637 -3.745,9.344c0,3.682 1.249,6.777 3.745,9.286c2.497,2.51 5.447,3.764 8.852,3.764c3.379,0 6.342,-1.272 8.889,-3.82c1.765,-1.765 2.9,-3.858 3.405,-6.279l0,-5.864z" fill="#1B467A"/>
    <path id="svg_6" d="m141.344,86.267l0,0.113c0,3.682 1.249,6.771 3.745,9.268c2.497,2.496 5.447,3.745 8.852,3.745c3.379,0 6.342,-1.273 8.889,-3.821c0.353,-0.353 1.034,-1.146 2.043,-2.383l6.431,2.27c-0.959,1.614 -2.068,3.039 -3.329,4.274c-3.833,3.858 -8.511,5.788 -14.034,5.788c-5.473,0 -10.106,-1.897 -13.901,-5.693c-3.796,-3.795 -5.693,-8.277 -5.693,-13.447c0,-5.221 1.897,-9.722 5.693,-13.505c3.795,-3.782 8.429,-5.674 13.901,-5.674c5.523,0 10.2,1.917 14.034,5.75c3.304,3.328 4.956,7.768 4.956,13.315l-31.587,0zm1.21,-5.977l22.659,0c-1.614,-4.691 -5.372,-7.036 -11.272,-7.036c-5.927,0 -9.722,2.345 -11.387,7.036z" fill="#1B467A"/>
    <path id="svg_7" d="m307.84,86.796l-6.394,0l0,17.816l-6.846,0l0,-54.433l15.585,0c4.539,0.605 8.335,2.446 11.386,5.522c3.556,3.556 5.334,7.806 5.334,12.748c0,4.968 -1.829,9.281 -5.485,12.937c-2.421,2.446 -4.564,3.896 -6.43,4.35l12.218,18.876l-7.906,0l-11.462,-17.816zm-6.394,-30.64l0,24.664l6.733,0c3.178,0 5.951,-1.179 8.322,-3.537c2.37,-2.358 3.556,-5.302 3.556,-8.833c0,-3.505 -1.186,-6.431 -3.556,-8.776c-2.371,-2.346 -5.145,-3.518 -8.322,-3.518l-6.733,0z" fill="#4684CE"/>
    <path id="svg_8" d="m349.562,105.066c-4.59,0 -8.215,-1.337 -10.875,-4.01c-2.661,-2.673 -4.029,-5.951 -4.104,-9.835l0,-21.221l6.847,0l0,20.957c0,2.32 0.819,4.287 2.459,5.9c1.538,1.539 3.417,2.308 5.636,2.308c2.018,0 3.821,-0.788 5.409,-2.364c1.589,-1.575 2.384,-3.523 2.384,-5.844l0,-20.957l6.847,0l0,21.222c-0.076,3.884 -1.463,7.187 -4.161,9.91c-2.625,2.623 -6.106,3.934 -10.442,3.934z" fill="#4684CE"/>
    <path id="svg_9" d="m376.644,70.038l0,-13.429l6.81,0l0,13.429l6.431,0l0,5.901l-6.431,0l0,28.673l-6.81,0l0,-28.673l-6.43,0l0,-5.901l6.43,0z" fill="#4684CE"/>
    <path id="svg_10" d="m401.608,86.267l0,0.113c0,3.682 1.248,6.771 3.745,9.268c2.496,2.496 5.447,3.745 8.852,3.745c3.379,0 6.342,-1.273 8.89,-3.821c0.353,-0.353 1.033,-1.146 2.042,-2.383l6.431,2.27c-0.958,1.614 -2.067,3.039 -3.328,4.274c-3.834,3.858 -8.512,5.788 -14.034,5.788c-5.473,0 -10.106,-1.897 -13.901,-5.693c-3.796,-3.795 -5.693,-8.277 -5.693,-13.447c0,-5.221 1.897,-9.722 5.693,-13.505c3.795,-3.782 8.429,-5.674 13.901,-5.674c5.522,0 10.2,1.917 14.034,5.75c3.303,3.328 4.955,7.768 4.955,13.315l-31.587,0zm1.211,-5.977l22.658,0c-1.614,-4.691 -5.371,-7.036 -11.272,-7.036c-5.927,0 -9.722,2.345 -11.386,7.036z" fill="#4684CE"/>
    <path id="svg_11" d="m446.696,78.814l0,25.798l-6.847,0l0,-34.574l6.847,0c1.159,-1.261 3.556,-1.891 7.187,-1.891c4.363,0 7.881,1.337 10.555,4.009c2.672,2.674 4.034,5.939 4.085,9.798l0,22.658l-6.809,0l0,-22.355c0,-2.346 -0.795,-4.294 -2.384,-5.845s-3.404,-2.326 -5.447,-2.326c-2.018,0 -3.795,0.731 -5.333,2.193c-0.883,0.883 -1.501,1.729 -1.854,2.535z" fill="#4684CE"/>
   </g>
   <g id="svg_12">
    <g id="svg_13">
     <g id="svg_14">
      <path id="svg_15" d="m203,122.067l0,-55.459c0,0 -1.238,-12.723 -8.716,-17.685c-9.434,-6.257 -52.585,-30.943 -52.585,-30.943l18.718,-10.048l37.332,22.104c0,0 21.252,10.05 21.252,34.964c0,22.51 0,47.425 0,47.425l-16.001,9.642z" fill="#1B467A"/>
      <path id="svg_16" d="m256,122.067l0,-55.459c0,0 0.746,-13.292 7.617,-17.685c9.539,-6.096 52.037,-30.943 52.037,-30.943l-18.995,-10.048l-36.862,22.104c0,0 -20.797,10.05 -20.797,34.964c0,22.51 0,47.425 0,47.425l17,9.642z" fill="#4684CE"/>
     </g>
    </g>
    <circle id="svg_17" r="9.816" cy="20.052" cx="228.662" fill="#1B467A"/>
   </g>
  </g>
 </g>
</svg>