<svg id="Layer_1" data-name="Layer 1" xmlns="http://www.w3.org/2000/svg" viewBox="0 0 144.95 145"><defs><style>.cls-1{fill:#b2d135;}.cls-2{fill:#b3d238;}.cls-3{fill:#b3d237;}.cls-4{fill:#b3d239;}.cls-5{fill:#b4d33b;}.cls-6{fill:#55480d;}</style></defs><title>LOGO</title><g id="HUS"><path class="cls-1" d="M144.83,92.91c-2-6.25-7-7.19-12.42-6.44-1.24.17-2.47,0.33-3.7,0.57-20.14,4-40.39,7.39-60.48,11.68-6.23,1.33-12.43,1.43-18.31-1.35C36.4,91,22.92,84.48,9.42,78c-1.38-.66-2.67-1.38-3.1-3a9,9,0,0,1,1.74-4.07A130.21,130.21,0,0,1,20.53,57a13.09,13.09,0,0,1,7.65-3.73,2.59,2.59,0,0,1,.55,2c0.41,5.35,1.75,10.26,5.67,14.28a85.12,85.12,0,0,1,5.55,7.06c3.16,4,6.29,8.08,9.52,12,4.31,5.28,9.7,7.37,16.58,6C78,92.15,90,90,102,87.74q14.32-2.7,28.64-5.37a14.14,14.14,0,0,0,5.75-2.57,6.32,6.32,0,0,0,2.41-7.91,12.56,12.56,0,0,0-2.35-4.23c-8-9-15.87-18-23.93-26.84-3.7-4.07-8.62-5.48-14-4.76-8.39,1.13-16.75,2.5-25.12,3.81-11.93,1.88-23.84,3.82-35.77,5.68-0.92.14-2,.52-3.07-0.43,0-2.08-.15-4.32-0.05-6.52,0.26-5.52.94-9,4.7-12.32,0.26-.22.25-0.43,0-0.57-2.13,0-3.21,2.12-5.2,2.75-0.69-2-1.22-3.92-2-5.73-1.18-2.78-1.4-3-4-4.79,2.39,5.37,2.49,10.39,1.76,15.53-2.23.07-4-1.84-6.41-1.06,2,1.64,4.52,2.54,5.88,5-0.27,3,.23,6.28-0.43,9.27A61.31,61.31,0,0,0,23,48.88c-9.62,4.86-16.07,12.94-21.35,22-2.55,4.35-.77,8.93,3.61,11.53,1,0.57,2,1,3,1.5C21,89.88,33.86,95.69,46.46,102a31,31,0,0,0,20.31,2.79c19-3.59,37.87-7.34,56.84-10.85,4.12-.76,8.17-2.42,12.35-1.66A5.29,5.29,0,0,1,139,97.55c-0.08,7.62,0,15.24-.07,22.87,0,3.84-2.21,6.26-6,7-1.22.24-44.67,7.65-65.2,11-6.23,1-10.43,1-18.39-2.06C39.17,132.45,7,116.92,0,113.91v6a7.94,7.94,0,0,0,2.85,2.33c10.95,5.09,22,10.07,33,15,6.84,3.09,14.06,6.17,21.26,7.39a35.78,35.78,0,0,0,9.76,0c7.75-.83,47.45-7.38,66.39-10.52,6.36-1.05,10.76-4.37,11.61-11.23C144.83,113.66,145.09,93.71,144.83,92.91ZM34.67,52.17c3.41-1.26,7-1.36,10.55-1.93,17-2.79,33.92-5.46,50.9-8.12a47.75,47.75,0,0,1,5.61-.33,8.19,8.19,0,0,1,6.64,2.9q12.11,13.55,24.17,27.14a3.1,3.1,0,0,1,.88,2.34c-0.75,2.23-2.74,2.48-4.54,2.82Q97.14,83,65.38,89C60.87,89.86,57,89,54,85.18c-5.58-7.2-11.31-14.3-17-21.44C34.36,60.33,34.38,56.37,34.67,52.17Z"/><path class="cls-2" d="M35.35,12.64c3-4.28,3-8.64,0-12.64H34.58a24.14,24.14,0,0,1-4,5.72C28,8.68,27,11.91,29,15.58,32.29,15.68,33.67,15,35.35,12.64Z"/><path class="cls-3" d="M48.74,18.22c1.18-2.42,1.14-4.76-1.06-7-7.89,3-10.68,8.41-6.63,12.88C44.86,23.89,47.15,21.48,48.74,18.22Z"/><path class="cls-4" d="M41,26.63c-1.43,3-.93,4.66,2,6.05,3.7,1.75,7.73,2.23,11.77,3C54.33,29.54,48.39,25.68,41,26.63Z"/><path class="cls-3" d="M21.8,36.16a4.21,4.21,0,0,0-.31-3.21C15,31.09,8.27,34.7,6.87,41,14.64,40.83,19.12,39.36,21.8,36.16Z"/><path class="cls-3" d="M26.94,16c-2.57-7.14-7.68-9.73-12.59-6.58C14.92,15.31,20.45,18.29,26.94,16Z"/><path class="cls-5" d="M16.82,22c-0.83,5.86.2,7.9,4.71,9.21a4.21,4.21,0,0,0,2.44-3C22.6,23.84,20.62,22.14,16.82,22Z"/></g><g id="BIRKETOFTEN"><path class="cls-6" d="M11.8,109a3.7,3.7,0,0,1-.43,1.95,2.2,2.2,0,0,1-1.12.94,3.17,3.17,0,0,1-1.55.13,5.89,5.89,0,0,1-1.68-.5l-4.52-2.11a2.08,2.08,0,0,1-.83-0.75,1.79,1.79,0,0,1-.36-1V84a0.71,0.71,0,0,1,.36-0.69,0.88,0.88,0,0,1,.83,0L7,85.46A8.59,8.59,0,0,1,8.7,86.53a9.06,9.06,0,0,1,1.55,1.58,8.05,8.05,0,0,1,1.12,2,6.41,6.41,0,0,1,.43,2.33v5.25a1.83,1.83,0,0,1-1.81,2,5.27,5.27,0,0,1,1.81,3.72V109ZM7.61,91.45a1.56,1.56,0,0,0-.26-0.95,1.8,1.8,0,0,0-.69-0.55l-0.82-.38V95.5l0.82,0.38q1,0.45,1-.54V91.45Zm0,10.53a1.54,1.54,0,0,0-.26-0.88,1.69,1.69,0,0,0-.69-0.59l-0.82-.38v6.3l0.82,0.38a0.77,0.77,0,0,0,.69.06,0.66,0.66,0,0,0,.26-0.64V102Z"/><path class="cls-6" d="M18.73,115.84a0.71,0.71,0,0,1-.35.66,0.92,0.92,0,0,1-.87,0l-2.08-1a2,2,0,0,1-.84-0.75,1.82,1.82,0,0,1-.35-1V90.05a0.74,0.74,0,0,1,.35-0.7,0.88,0.88,0,0,1,.84,0l2.08,1a2.11,2.11,0,0,1,.87.77,1.85,1.85,0,0,1,.35,1v23.69Z"/><path class="cls-6" d="M32.46,122.11a0.61,0.61,0,0,1-.25.81,1,1,0,0,1-.94,0l-2-.92a2.23,2.23,0,0,1-.71-0.53,1.71,1.71,0,0,1-.41-0.79,15.65,15.65,0,0,1-.4-3.42v-5.48a1.58,1.58,0,0,0-.26-0.85,1.87,1.87,0,0,0-.82-0.68l-0.76-.35v9.34a0.68,0.68,0,0,1-.36.66,0.93,0.93,0,0,1-.86,0l-2.11-1a2.08,2.08,0,0,1-.83-0.75,1.79,1.79,0,0,1-.36-1V93.39a0.71,0.71,0,0,1,.36-0.69,0.89,0.89,0,0,1,.83,0l4.52,2.11a9.05,9.05,0,0,1,1.72,1.08,8.91,8.91,0,0,1,1.58,1.6,9.19,9.19,0,0,1,1.17,2,6,6,0,0,1,.48,2.35v5.87a1.85,1.85,0,0,1-.51,1.43,2.29,2.29,0,0,1-1.44.54l0,0a9.91,9.91,0,0,1,1.47,1.89,3.79,3.79,0,0,1,.58,1.94v5.35q0,0.86.07,1.65T32.46,122.11ZM27.7,100.85a1.56,1.56,0,0,0-.26-0.95,1.79,1.79,0,0,0-.69-0.55L25.92,99v6.6l0.82,0.38q1,0.45,1-.58v-4.52Z"/><path class="cls-6" d="M46.22,128.33a1.6,1.6,0,0,1,0,.35,0.74,0.74,0,0,1-.33.67,0.87,0.87,0,0,1-.86,0l-2-.92a2.11,2.11,0,0,1-.79-0.65,1.93,1.93,0,0,1-.4-0.89l-1.72-9.31-0.26-.12-1,2.89v5a0.71,0.71,0,0,1-.34.67,0.91,0.91,0,0,1-.87,0l-2.13-1a2.07,2.07,0,0,1-.82-0.75,1.79,1.79,0,0,1-.36-1V99.47a0.72,0.72,0,0,1,.36-0.69,0.87,0.87,0,0,1,.82,0l2.13,1a2.09,2.09,0,0,1,.87.77,1.86,1.86,0,0,1,.34,1v10.56l0.3,0.14q0.5-2.51,1.11-4.9t1.2-4.85A0.63,0.63,0,0,1,42,102a1,1,0,0,1,.74.08L44.53,103a2,2,0,0,1,.86.78,1.92,1.92,0,0,1,.33,1v0.33l-2.64,9.2Z"/><path class="cls-6" d="M57.27,133.81a0.71,0.71,0,0,1-.35.66,0.92,0.92,0,0,1-.87,0l-6.73-3.14a2.08,2.08,0,0,1-.83-0.75,1.79,1.79,0,0,1-.36-1V105.86a0.71,0.71,0,0,1,.36-0.69,0.88,0.88,0,0,1,.83,0L56,108.33a2.11,2.11,0,0,1,.87.77,1.86,1.86,0,0,1,.35,1V112a0.7,0.7,0,0,1-.35.68,1,1,0,0,1-.87-0.06L52.65,111v6l1.78,0.83a2.16,2.16,0,0,1,.89.75,1.82,1.82,0,0,1,.33,1v2.18a0.76,0.76,0,0,1-.33.72,1,1,0,0,1-.89-0.07l-1.78-.83v6.6l3.4,1.58a2.15,2.15,0,0,1,.87.75,1.82,1.82,0,0,1,.35,1v2.21Z"/><path class="cls-6" d="M72,110.2a1.38,1.38,0,0,1-.35.89,1.41,1.41,0,0,1-.87.52l-1.88.33v20.43a1.36,1.36,0,0,1-.36.89,1.4,1.4,0,0,1-.83.51l-2.11.37a1,1,0,0,1-.87-0.21,1,1,0,0,1-.35-0.76V112.73l-2,.35a1,1,0,0,1-.89-0.21,0.94,0.94,0,0,1-.36-0.76V110a1.4,1.4,0,0,1,.36-0.92,1.48,1.48,0,0,1,.89-0.52l8.42-1.48a1,1,0,0,1,1.22,1v2.08Z"/><path class="cls-6" d="M84.69,125.65a5.41,5.41,0,0,1-.43,2,7.64,7.64,0,0,1-1.19,2,7.87,7.87,0,0,1-1.75,1.58,5.75,5.75,0,0,1-2.18.86,4.54,4.54,0,0,1-3.92-1.06A5.07,5.07,0,0,1,74,129.48a4.2,4.2,0,0,1-.45-1.87V111.74a5.25,5.25,0,0,1,.45-2,7.89,7.89,0,0,1,1.19-2,7.43,7.43,0,0,1,1.74-1.54,5.9,5.9,0,0,1,2.19-.85,4.81,4.81,0,0,1,2.18.08,4.74,4.74,0,0,1,1.75.93,4.53,4.53,0,0,1,1.19,1.56,4.35,4.35,0,0,1,.43,1.87v15.87ZM80.2,110.4a0.55,0.55,0,0,0-.3-0.54,1.29,1.29,0,0,0-.79-0.06,1.58,1.58,0,0,0-.76.33,0.81,0.81,0,0,0-.3.65V127a0.52,0.52,0,0,0,.3.51,1.22,1.22,0,0,0,.76.06,1.65,1.65,0,0,0,.79-0.34,0.77,0.77,0,0,0,.3-0.61V110.4Z"/><path class="cls-6" d="M96,105.76a1.36,1.36,0,0,1-.35.9,1.45,1.45,0,0,1-.87.5l-3.4.6v6.44l2.21-.39a1,1,0,0,1,.87.21,1,1,0,0,1,.35.83v2a1.38,1.38,0,0,1-.35.89,1.41,1.41,0,0,1-.87.52l-2.21.39v9.7a1.36,1.36,0,0,1-.36.89,1.44,1.44,0,0,1-.86.51l-2.11.37a1,1,0,0,1-.83-0.22,0.94,0.94,0,0,1-.36-0.76V105.49a1.55,1.55,0,0,1,1.19-1.43l6.73-1.19a1,1,0,0,1,1.22,1v1.88Z"/><path class="cls-6" d="M108,103.86a1.38,1.38,0,0,1-.35.89,1.41,1.41,0,0,1-.87.52l-1.88.33V126a1.36,1.36,0,0,1-.36.89,1.4,1.4,0,0,1-.82.51l-2.11.37a1,1,0,0,1-.87-0.21,1,1,0,0,1-.35-0.76V106.39l-2,.35a1,1,0,0,1-.89-0.21,0.94,0.94,0,0,1-.36-0.76V103.7a1.4,1.4,0,0,1,.36-0.92,1.48,1.48,0,0,1,.89-0.52l8.42-1.48a1,1,0,0,1,1.22,1v2.08Z"/><path class="cls-6" d="M118.84,123.55a1.38,1.38,0,0,1-.35.89,1.42,1.42,0,0,1-.87.52l-6.73,1.19a1,1,0,0,1-.83-0.22,0.94,0.94,0,0,1-.36-0.76V101.47a1.55,1.55,0,0,1,1.19-1.43l6.73-1.19a1,1,0,0,1,1.22,1v1.88a1.36,1.36,0,0,1-.35.9,1.45,1.45,0,0,1-.87.5l-3.4.6v6l1.78-.31a1.05,1.05,0,0,1,.89.17,1,1,0,0,1,.33.83v2.18A1.44,1.44,0,0,1,116,114l-1.78.31v6.6l3.4-.6a1,1,0,0,1,.87.19,1,1,0,0,1,.35.81v2.21Z"/><path class="cls-6" d="M132.84,121.09a1.36,1.36,0,0,1-.36.89,1.48,1.48,0,0,1-.89.52l-1.81.32a1,1,0,0,1-.73-0.1,1.16,1.16,0,0,1-.46-0.55l-3.73-11.72-0.26,0v12a1.36,1.36,0,0,1-.36.89,1.43,1.43,0,0,1-.86.51l-1.32.23a1,1,0,0,1-.83-0.22,0.94,0.94,0,0,1-.36-0.76V99.51A1.55,1.55,0,0,1,122,98.08l2-.35a1,1,0,0,1,.73.12,1.1,1.1,0,0,1,.43.6l3.63,12,0.26,0V98.06a1.42,1.42,0,0,1,.35-0.92,1.38,1.38,0,0,1,.84-0.51l1.32-.23a1.05,1.05,0,0,1,.89.21,1,1,0,0,1,.36.79v23.69Z"/></g></svg>