<svg xmlns="http://www.w3.org/2000/svg" viewBox="0 0 551.26 256.98"><defs><style>.cls-1,.cls-2{fill:#94afbe;}.cls-2{opacity:0.15;}.cls-3{fill:#2e2014;}</style></defs><title>MENTALSTYRKE</title><g id="Layer_2" data-name="Layer 2"><g id="Layer_1-2" data-name="Layer 1"><polygon class="cls-1" points="251.34 77.46 262.03 55.96 268.34 68.9 282.59 40.85 300.5 77.46 320.8 77.46 282.9 0 268.68 27.99 262.2 14.7 230.98 77.46 251.34 77.46"/><polygon class="cls-2" points="305.59 87.87 319.02 115.76 294.29 210.34 275.36 229.9 258.83 210.56 232.3 115.74 246.16 87.87 225.8 87.87 212.85 113.9 242.36 219.35 274.52 256.98 310.71 219.58 338.35 113.88 325.82 87.87 305.59 87.87"/><path class="cls-3" d="M0,128.1H9.07l8.47,23.16h.14l8.37-23.16h9.12v32.59H29.41V134.5h-.09l-9.9,26.19H15.37L5.62,134.5h-.1v26.19H0Z"/><path class="cls-3" d="M60.76,128.1H82.35v5.07H66.56v8.28h15v4.88h-15v9.21H83.18v5.15H60.76Z"/><path class="cls-3" d="M107.25,128.1h7.69l15.14,24.4h.09V128.1H136v32.59h-7.36l-15.47-25.17h-.09v25.17h-5.8Z"/><path class="cls-3" d="M168.15,133.17h-10V128.1h25.78v5.07H174v27.52h-5.8Z"/><path class="cls-3" d="M213.58,128.1h5l14,32.59H226l-3-7.45H208.84l-3,7.45H199.4Zm7.36,20.17-5-13.26-5.11,13.26Z"/><path class="cls-3" d="M254.27,128.1h5.8v27.44h13.86v5.15H254.27Z"/><path class="cls-3" d="M312.82,134.92a6.91,6.91,0,0,0-2.6-2,7.73,7.73,0,0,0-3.38-.81,8.3,8.3,0,0,0-2,.25,6.06,6.06,0,0,0-1.84.79,4.37,4.37,0,0,0-1.36,1.38,3.8,3.8,0,0,0-.53,2,3.73,3.73,0,0,0,.46,1.89,4.26,4.26,0,0,0,1.27,1.34,8.73,8.73,0,0,0,2,1c.76.28,1.61.56,2.53.83s2.12.72,3.24,1.15a12.58,12.58,0,0,1,3.09,1.71,8.4,8.4,0,0,1,2.3,2.67,8.08,8.08,0,0,1,.9,4,10.27,10.27,0,0,1-1,4.58,9.52,9.52,0,0,1-2.58,3.25,11.12,11.12,0,0,1-3.77,1.93,15.9,15.9,0,0,1-4.56.64,17.1,17.1,0,0,1-6.21-1.17,11.94,11.94,0,0,1-5-3.48l4.15-3.86a8.29,8.29,0,0,0,3.2,2.62,8.89,8.89,0,0,0,3.93,1,8.76,8.76,0,0,0,2.07-.26,5.25,5.25,0,0,0,1.91-.85A4.68,4.68,0,0,0,310.4,154a4.3,4.3,0,0,0,.53-2.24,3.72,3.72,0,0,0-.59-2.14,5.51,5.51,0,0,0-1.62-1.47,11.82,11.82,0,0,0-2.39-1.08l-2.9-1a27.94,27.94,0,0,1-2.95-1.1,9.66,9.66,0,0,1-2.64-1.71,8.16,8.16,0,0,1-1.91-2.6,8.85,8.85,0,0,1-.74-3.84,8.43,8.43,0,0,1,1-4.28,9.08,9.08,0,0,1,2.71-3,12.36,12.36,0,0,1,3.82-1.75,16.87,16.87,0,0,1,4.35-.57,15.54,15.54,0,0,1,5,.87,12.34,12.34,0,0,1,4.45,2.62Z"/><path class="cls-3" d="M346.88,133.17h-10V128.1h25.77v5.07h-10v27.52h-5.8Z"/><path class="cls-3" d="M392.18,146.56,379.93,128.1H387l8.2,13.72,8.28-13.72h6.72L398,146.56v14.13h-5.8Z"/><path class="cls-3" d="M431.35,128.1h11.32a20.62,20.62,0,0,1,4.47.49,11.37,11.37,0,0,1,3.84,1.59,8.15,8.15,0,0,1,2.69,2.9,8.69,8.69,0,0,1,1,4.37,8.32,8.32,0,0,1-2,5.78,10.09,10.09,0,0,1-5.45,3l8.7,14.45h-7l-7.55-13.8h-4.23v13.8h-5.8Zm10.54,14a17.38,17.38,0,0,0,2.49-.18,7.1,7.1,0,0,0,2.23-.69,4.36,4.36,0,0,0,1.63-1.45,4.19,4.19,0,0,0,.65-2.42,3.67,3.67,0,0,0-.6-2.18,4.51,4.51,0,0,0-1.52-1.36,6.18,6.18,0,0,0-2.1-.69,15,15,0,0,0-2.27-.19h-5.25v9.16Z"/><path class="cls-3" d="M478.71,128.1h5.8v14.09h.14l13.63-14.09h7.82l-15.23,15.06,16.25,17.53H499l-14.32-16.34h-.14v16.34h-5.8Z"/><path class="cls-3" d="M528.84,128.1h21.59v5.07H534.64v8.28h15v4.88h-15v9.21h16.62v5.15H528.84Z"/></g></g></svg>