<svg xmlns="http://www.w3.org/2000/svg" xmlns:xlink="http://www.w3.org/1999/xlink" preserveAspectRatio="xMidYMid" width="200" height="29.9" viewBox="0 0 194 29"><defs><style>.cls-1 {fill: #c12025;fill-rule: evenodd;}</style></defs><path d="M194.000 26.4 L191.341 26.4 L182.925 16.7 L180.031 19.1 L180.011 19.1 L180.011 26.4 L177.769 26.4 L177.769 0 L180.011 0 L180.011 16.5 L189.384 8.8 L192.351 8.8 L184.531 15.4 L194.000 26.4 ZM165.971 26.9 C160.742 26.9 158.1 24.4 158.1 22.7 L158.096 12.7 C158.096 10.6 160.9 7.8 166 7.8 C169.429 7.8 171.4 9.1 172.2 9.4 L172.164 0 L174.386 0 L174.386 22.7 C174.386 24.5 171.2 26.9 166 26.9 ZM172.191 12.7 C172.191 12.1 169.7 9.9 165.9 9.9 C162.198 9.9 160.3 12.1 160.3 12.7 L160.307 22.2 C160.307 22.8 162.2 24.7 165.9 24.7 C169.781 24.7 172.2 22.8 172.2 22.2 L172.191 12.7 ZM148.426 29 C147.716 29 144.3 25.7 144 23.8 C143.671 22.2 144.7 21.2 145.5 21 C146.384 20.8 147.1 21.6 147.6 22.8 C147.658 22.9 147.8 23.1 148 23 L148.585 22.8 L148.816 22.5 C149.283 21.1 150.2 19.9 151.4 19.7 C152.653 19.4 154.4 20.2 153.9 22.5 C153.257 25.4 149.2 29 148.4 29 ZM130.942 26.9 C125.675 26.9 122.7 24.2 122.7 22.7 L122.653 12.7 C122.653 10.6 125.7 7.8 130.9 7.8 C134.332 7.8 135.5 8.7 136.1 9 L136.061 -0 L139.568 -0 L139.568 22.7 C139.568 24.2 136.2 26.9 130.9 26.9 ZM136.061 13.3 C136.061 12.9 134.2 11.3 130.9 11.3 C127.569 11.3 126.1 12.9 126.1 13.3 L126.096 21.5 C126.096 21.9 127.6 23.4 130.9 23.4 C134.254 23.4 136.1 21.9 136.1 21.5 L136.061 13.3 ZM110.313 27 C104.872 27 101.8 23.7 101.8 22.2 L101.827 13.4 C101.827 10.7 104.1 7.8 110.3 7.8 C116.596 7.8 118.7 11.4 118.7 13.4 L118.690 18.5 L105.372 18.5 L105.372 21.5 C105.372 21.5 106.5 23.6 110.3 23.6 C113.823 23.6 114.8 21.7 114.9 21.5 L118.699 21.5 L118.699 21.6 C118.699 23.6 115.9 27 110.3 27 ZM115.112 15.4 L115.112 13.2 C115.112 12.9 113.4 11.2 110.2 11.2 C107.068 11.2 105.4 12.8 105.4 13.2 L105.372 15.4 L115.112 15.4 ZM94.721 13.4 C94.721 12.9 93 11.3 89.9 11.3 C86.826 11.3 85 12.9 85 13.3 L84.972 26.4 L81.412 26.4 L81.412 0 L84.972 0 L84.972 9.1 C84.972 9.1 86.8 7.8 90.2 7.8 C95.764 7.8 98.3 10.9 98.3 12.7 L98.279 26.4 L94.721 26.4 L94.721 13.4 ZM69.236 26.9 C63.965 26.9 60.9 24.2 60.9 22.7 L60.945 12.7 C60.945 10.6 64 7.8 69.2 7.8 C72.622 7.8 73.8 8.7 74.3 9 L74.348 0 L77.861 0 L77.861 22.7 C77.861 24.2 74.5 26.9 69.2 26.9 ZM74.348 13.3 C74.348 12.9 72.5 11.3 69.2 11.3 C65.868 11.3 64.4 12.9 64.4 13.3 L64.388 21.5 C64.388 21.9 65.9 23.4 69.2 23.4 C72.552 23.4 74.3 21.9 74.3 21.5 L74.348 13.3 ZM53.703 13.3 C53.703 12.9 52.6 11.3 48.9 11.3 C45.149 11.3 43.9 12.9 43.9 13.3 L43.872 26.4 L40.284 26.4 L40.284 12.7 C40.284 10.6 43.4 7.8 48.8 7.8 C54.242 7.8 57.3 10.6 57.3 12.7 L57.284 26.4 L53.703 26.4 L53.703 13.3 ZM28.485 27 C23.039 27 20 24.2 20 22.7 L20.003 8.9 L23.583 8.9 L23.583 21.4 C23.583 21.9 24.6 23.5 28.4 23.5 C32.141 23.5 33.4 21.9 33.4 21.4 L33.411 8.9 L36.997 8.9 L36.997 22.7 C36.997 24.2 33.9 27 28.5 27 ZM8.095 27 C2.803 27 0 23.9 0 21.8 C0.007 21.5 0 21.5 0 21.5 L3.522 21.5 C3.525 21.9 5 23.7 8.2 23.7 C11.190 23.7 13 22 13 21.5 L12.956 20.2 C12.956 19.8 12.9 19.8 12.6 19.7 C12.284 19.6 2.7 17.8 1.6 17.6 C0.346 17.4 0 16.9 0 15.9 C-0.006 15.7 0 12.8 0 12.7 C-0.000 10.6 3 7.8 8.3 7.8 C13.631 7.8 16.4 10.7 16.4 12.8 C16.422 13 16.4 13.1 16.4 13.3 L12.912 13.3 C12.912 12.9 11.4 11.1 8.2 11.1 C5.244 11.1 3.5 12.9 3.5 13.3 L3.478 14.1 C3.478 14.5 3.5 14.6 3.7 14.6 C4.094 14.7 13.5 16.5 15 16.8 C16.480 17.1 16.4 17.6 16.4 18.9 C16.437 19 16.4 22 16.4 22.1 C16.431 24.2 13.4 27 8.1 27 Z" class="cls-1"/></svg>