<?xml version="1.0" encoding="UTF-8" standalone="no"?>
<!-- Created with Inkscape (http://www.inkscape.org/) -->
<svg id="svg2" xmlns:rdf="http://www.w3.org/1999/02/22-rdf-syntax-ns#" xmlns="http://www.w3.org/2000/svg" xml:space="preserve" height="148.85" width="120.93" version="1.1" xmlns:cc="http://creativecommons.org/ns#" xmlns:dc="http://purl.org/dc/elements/1.1/"><metadata id="metadata8"><rdf:RDF><cc:Work rdf:about=""><dc:format>image/svg+xml</dc:format><dc:type rdf:resource="http://purl.org/dc/dcmitype/StillImage"/><dc:title/></cc:Work></rdf:RDF></metadata><defs id="defs6"><clipPath id="clipPath18" clipPathUnits="userSpaceOnUse"><path id="path20" d="M0,5566.9,0,0h4522.7v5566.9h-4522.7z"/></clipPath></defs><g id="g10" transform="matrix(1.25,0,0,-1.25,-2.000078,148.84805)"><g id="g12" transform="matrix(0.00566034,0,0,0.00566034,5.8855622e-5,0)"><g id="g14" transform="matrix(3.7790229,0,0,3.7790229,282.6668,0)"><g id="g16" fill-rule="nonzero" clip-path="url(#clipPath18)"><path id="path22" fill="#263a73" d="M4309.8,2056.7c-526.3-1122-1862.6-1604.9-2984.5-1078.6-1122,526.26-1604.9,1862.5-1078.6,2984.5,526.32,1122,1862.5,1604.9,2984.5,1078.6,1122-526.4,1604.9-1862.6,1078.6-2984.5"/><path id="path24" fill="#263a73" d="M2433.7,948.55,3585.8,0,3813.4,1456.4,2433.7,948.55"/><path id="path26" fill="#5380ca" d="M3298.4,1341.5c-1094-582.13-2452.9-167.1-3035,926.9-582.11,1094.1-167.04,2453,927.02,3035.1,1094,582.12,2452.9,167.07,3034.9-927,582.13-1094,167.13-2452.9-926.9-3035"/><path id="path28" fill="#5380ca" d="M1132.2,1621.2,1498,118.46,2592.2,1184.8,1132.2,1621.2"/><path id="path30" fill="#FFF" d="m1095.6,3812.8,0-182.93-326.64,0,0-797-195.99,0,0,797-326.64,0,0,182.93,849.28,0"/><path id="path32" fill="#FFF" d="m1422.2,3812.8,0-568.36c0-74.05,21.77-128.48,65.33-163.32,43.54-34.85,97.99-52.26,163.32-52.26s119.78,17.41,163.32,52.26c43.54,34.84,65.33,89.27,65.33,163.32v568.36h195.99v-620.62c0-100.18-40.28-185.11-120.86-254.79s-181.84-104.52-303.78-104.52c-121.93,0-223.21,34.84-303.78,104.52-80.58,69.68-120.85,154.61-120.85,254.79v620.62h195.98"/><path id="path34" fill="#FFF" d="m2468.8,2985.7,320.12,0c91.88,1.31,138.93,48.57,141.11,141.78-2.18,62.72-48.57,95.37-139.16,97.99h-322.07v-239.77zm0,433.79,274.38,0c78.83,1.31,119.34,42.02,121.52,122.17-2.18,47.9-42.05,73.16-119.55,75.78h-276.35v-197.95zm514.15-69.9c85.8-57.49,131.3-132.19,136.54-224.08-8.73-184.67-107.38-282.44-295.94-293.32l-551.39,0.65v979.28h520.02c165.06-9.59,252.17-105.62,261.31-288.1-3.03-87.12-26.54-145.26-70.54-174.43"/><path id="path36" fill="#FFF" d="m3758.4,3551.4-148.94-372.37,293.98,0-145.04,372.37zm-495.19-718.61,391.97,979.93,196,0,391.31-979.27-208.4-0.66-58.79,150.26-444.24,0-58.79-150.26-209.06,0"/></g></g></g></g></svg>
